# xmcd
#
# Track frame offsets: 
#        150
#        12157
#        36725
#        74811
#        91831
#        103032
#        116358
#        148520
#        163415
#        186427
#        201849
#        221414
#
# Disc length: 3106 seconds
#
# Revision: 6
# Processed by: cddbd v1.5.2PL0 Copyright (c) Steve Scherf et al.
# Submitted via: ExactAudioCopy v1.0b3
#
DISCID=b70c200c
DTITLE=Leszek Mozdzer - Piano
DYEAR=2004
DGENRE=Jazz
TTITLE0=Zdrowy Kollataj
TTITLE1=Sanctus
TTITLE2=Exploris
TTITLE3=Kamilla
TTITLE4=Bzdurox
TTITLE5=No Message
TTITLE6=So What
TTITLE7=Pi
TTITLE8=Exploritis
TTITLE9=Let's Do It Tomorrow
TTITLE10=On Green Dolphin Street
TTITLE11=Christus Vincit
EXTD=
EXTT0=
EXTT1=
EXTT2=
EXTT3=
EXTT4=
EXTT5=
EXTT6=
EXTT7=
EXTT8=
EXTT9=
EXTT10=
EXTT11=
PLAYORDER=
